<svg width="277" height="290" viewBox="0 0 277 290" fill="none" xmlns="http://www.w3.org/2000/svg">
<g clip-path="url(#clip0_1576_3389)">
<path d="M249.499 215.071C272.805 212.58 290.509 201.195 294.875 174.921C301.036 139.021 269.136 117.033 223.311 100.079L237.404 52.0024L201.022 41.3379L187.321 88.0791C177.871 85.309 168.129 82.6604 158.387 80.0121L172.2 32.8895L135.819 22.2251L121.726 70.3018C108.254 66.7072 92.7219 61.9814 48.7272 48.9039L39.556 80.1914C68.4006 88.2007 83.9088 91.128 83.0021 107.014L44.4153 238.652C38.7632 249.811 27.5667 244.683 1.63768 236.679L-15.9186 269.445C50.4161 288.89 57.0243 291.034 57.0243 291.034L44.9556 332.206L81.3372 342.871L93.2383 302.271C103.104 305.37 112.79 308.209 122.004 310.91L110.159 351.319L146.541 361.984L158.609 320.811C220.343 336.006 264.722 335.549 283.746 290.782C298.902 254.827 282.033 231.858 249.499 215.071ZM149.031 114.56C169.584 120.585 235.351 134.27 225.23 168.801C215.555 201.806 152.416 179.154 131.862 173.13L149.031 114.56ZM104.348 266.993L123.25 202.51C147.819 209.712 224.678 226.233 213.605 264.008C202.923 300.446 128.918 274.195 104.348 266.993Z" fill="url(#paint0_linear_1576_3389)" fill-opacity="0.3"/>
</g>
<defs>
<linearGradient id="paint0_linear_1576_3389" x1="203.941" y1="42.1936" x2="113.077" y2="352.175" gradientUnits="userSpaceOnUse">
<stop stop-color="white"/>
<stop offset="1" stop-color="#900A15" stop-opacity="0"/>
</linearGradient>
<clipPath id="clip0_1576_3389">
<rect width="300" height="213.296" fill="white" transform="translate(59.998) rotate(16.3373)"/>
</clipPath>
</defs>
</svg>
